# xmcd
#
# Track frame offsets:
#	150
#	17309
#	38779
#	61402
#	80271
#	98804
#	119582
#	137613
#	155169
#	174698
#	193923
#	212235
#
# Disc length: 3124 seconds
#
# Revision: 0
# Processed by: cddbd v1.5.2PL0 Copyright (c) Steve Scherf et al.
# Submitted via: EZCDAudioConverter 7.1.5.1
#
DISCID=a50c320c
DTITLE=周杰伦 - 11月的萧邦
DYEAR=2005
DGENRE=
TTITLE0=夜曲
TTITLE1=蓝色风暴
TTITLE2=发如雪
TTITLE3=黑色毛衣
TTITLE4=四面楚歌
TTITLE5=枫
TTITLE6=浪漫手机
TTITLE7=逆鳞
TTITLE8=麦芽糖
TTITLE9=珊瑚海
TTITLE10=飘移
TTITLE11=一路向北
EXTD=
EXTT0=
EXTT1=
EXTT2=
EXTT3=
EXTT4=
EXTT5=
EXTT6=
EXTT7=
EXTT8=
EXTT9=
EXTT10=
EXTT11=
PLAYORDER=
